<?xml version="1.0" encoding="utf-8"?>
<!-- Generator: Adobe Illustrator 22.1.0, SVG Export Plug-In . SVG Version: 6.00 Build 0)  -->
<svg version="1.1" id="Camada_1" xmlns="http://www.w3.org/2000/svg" xmlns:xlink="http://www.w3.org/1999/xlink" x="0px" y="0px"
	 viewBox="0 0 595.3 302.6" style="enable-background:new 0 0 595.3 302.6;" xml:space="preserve">
<g>
	<g>
		<path d="M482.7,136.6l-29.1,40.8h66.1v50c-15.9,12.2-38.1,20.2-62.4,20.2c-52.8,0-87.9-40.4-87.9-95.4v-0.8
			c0-51.1,36.2-94.2,83.9-94.2c32.9,0,52.5,11.1,72.4,28.6l28.8-35.5c-26.6-23.3-54.3-36.2-99.4-36.2c-43.5,0-80,19.8-103.8,50.2
			L331,15.1h-53.5L165.3,287.3v-215h80.2l22.8-55.2H11.3v55.2h96v217.1h116.3l15.3-38.7l29.6-75.2h-0.1l35-88.3l19.2,48.4
			c-0.6,5.5-1,11.1-1,16.8v0.8c0,77.8,53.2,137.3,134.1,137.3c45.8,0,82.4-19.1,107.9-41.6V136.6H482.7z"/>
	</g>
</g>
</svg>
