<?xml version="1.0" encoding="utf-8"?>
<!-- Generator: Adobe Illustrator 22.1.0, SVG Export Plug-In . SVG Version: 6.00 Build 0)  -->
<svg version="1.1" xmlns="http://www.w3.org/2000/svg" xmlns:xlink="http://www.w3.org/1999/xlink" x="0px" y="0px"
	 viewBox="0 0 525 529.4" style="enable-background:new 0 0 525 529.4;" xml:space="preserve">
<style type="text/css">
	.st0{fill:url(#SVGID_1_);}
	.st1{fill:#FFFFFF;}
</style>
<g id="Camada_1">
</g>
<g id="Camada_2">
	<g>
		<linearGradient id="SVGID_1_" gradientUnits="userSpaceOnUse" x1="12.6936" y1="265.0627" x2="507.2882" y2="265.0627">
			<stop  offset="0" style="stop-color:#41B1C6"/>
			<stop  offset="1" style="stop-color:#85C776"/>
		</linearGradient>
		<circle class="st0" cx="260" cy="265.1" r="247.3"/>
		<g>
			<g>
				<path class="st1" d="M384,256.9l-20.2,28.3h45.8v34.6c-11,8.5-26.4,14-43.3,14c-36.6,0-61-28-61-66.1v-0.5
					c0-35.4,25.1-65.3,58.1-65.3c22.8,0,36.4,7.7,50.2,19.8l20-24.6C415.3,181,396.1,172,364.8,172c-30.2,0-55.5,13.7-71.9,34.8
					l-14.1-34.1h-37.1L164,361.4V212.3h55.6l15.8-38.3H57.2v38.3h66.5v150.5h80.6l10.6-26.8l20.5-52.2h-0.1l24.3-61.2l13.3,33.5
					c-0.4,3.8-0.7,7.7-0.7,11.6v0.5c0,53.9,36.9,95.2,93,95.2c31.8,0,57.1-13.2,74.8-28.8v-77.7H384z"/>
			</g>
		</g>
	</g>
</g>
</svg>
